{
  "accessors": [
    {
      "bufferView": 1,
      "componentType": 5126,
      "count": 458,
      "max": [
        3.4099593162536621,
        5.9907674789428711,
        31.621740341186523
      ],
      "min": [
        -15.587301254272461,
        -5.4115967750549316,
        -0.080874107778072357
      ],
      "type": "VEC3"
    },
    {
      "bufferView": 1,
      "byteOffset": 5496,
      "componentType": 5126,
      "count": 458,
      "max": [
        0.9691237211227417,
        0.99836021661758423,
        0.84056109189987183
      ],
      "min": [
        -0.99731171131134033,
        -0.99992960691452026,
        -1
      ],
      "type": "VEC3"
    },
    {
      "bufferView": 2,
      "componentType": 5126,
      "count": 458,
      "max": [
        1,
        0.39353135228157043,
        0.99938029050827026,
        1
      ],
      "min": [
        -0.50495195388793945,
        -0.64929628372192383,
        -0.99964749813079834,
        -1
      ],
      "type": "VEC4"
    },
    {
      "bufferView": 0,
      "componentType": 5125,
      "count": 966,
      "max": [
        457
      ],
      "min": [
        0
      ],
      "type": "SCALAR"
    },
    {
      "bufferView": 1,
      "byteOffset": 10992,
      "componentType": 5126,
      "count": 112,
      "max": [
        7.1231541633605957,
        4.3679823875427246,
        0.8294825553894043
      ],
      "min": [
        -8.3531036376953125,
        -4.6345839500427246,
        -14.407934188842773
      ],
      "type": "VEC3"
    },
    {
      "bufferView": 1,
      "byteOffset": 12336,
      "componentType": 5126,
      "count": 112,
      "max": [
        0.86381608247756958,
        0.9459107518196106,
        0.9785582423210144
      ],
      "min": [
        -0.8638160228729248,
        -0.97463387250900269,
        -0.79841428995132446
      ],
      "type": "VEC3"
    },
    {
      "bufferView": 2,
      "byteOffset": 7328,
      "componentType": 5126,
      "count": 112,
      "max": [
        0.99114155769348145,
        0.92854601144790649,
        0.055485710501670837,
        1
      ],
      "min": [
        -0.99114155769348145,
        -0.92854583263397217,
        -0.055485710501670837,
        1
      ],
      "type": "VEC4"
    },
    {
      "bufferView": 0,
      "byteOffset": 3864,
      "componentType": 5125,
      "count": 144,
      "max": [
        111
      ],
      "min": [
        0
      ],
      "type": "SCALAR"
    }
  ],
  "asset": {
    "extras": {
      "author": "drop05 (https://sketchfab.com/drop05)",
      "license": "CC-BY-4.0 (http://creativecommons.org/licenses/by/4.0/)",
      "source": "https://sketchfab.com/models/8ab0790a1b894fc1b8027985a169f771",
      "title": "Radish"
    },
    "generator": "Sketchfab-3.18.7",
    "version": "2.0"
  },
  "bufferViews": [
    {
      "buffer": 0,
      "byteLength": 4440,
      "byteOffset": 0,
      "name": "floatBufferViews",
      "target": 34963
    },
    {
      "buffer": 0,
      "byteLength": 13680,
      "byteOffset": 4440,
      "byteStride": 12,
      "name": "floatBufferViews",
      "target": 34962
    },
    {
      "buffer": 0,
      "byteLength": 9120,
      "byteOffset": 18120,
      "byteStride": 16,
      "name": "floatBufferViews",
      "target": 34962
    }
  ],
  "buffers": [
    {
      "byteLength": 27240,
      "uri": "scene.bin"
    }
  ],
  "materials": [
    {
      "doubleSided": true,
      "emissiveFactor": [
        0,
        0,
        0
      ],
      "name": "Material_55",
      "pbrMetallicRoughness": {
        "baseColorFactor": [
          0.12548999999999999,
          0.33725500000000003,
          0.14902000000000001,
          1
        ],
        "metallicFactor": 0,
        "roughnessFactor": 0.89297135959999996
      }
    },
    {
      "doubleSided": true,
      "emissiveFactor": [
        0,
        0,
        0
      ],
      "name": "Material_55_0",
      "pbrMetallicRoughness": {
        "baseColorFactor": [
          0.32549,
          0.17647099999999999,
          0.37254900000000002,
          1
        ],
        "metallicFactor": 0,
        "roughnessFactor": 0.89297135959999996
      }
    }
  ],
  "meshes": [
    {
      "name": "Line011_Material #55_0",
      "primitives": [
        {
          "attributes": {
            "NORMAL": 1,
            "POSITION": 0,
            "TANGENT": 2
          },
          "indices": 3,
          "material": 0,
          "mode": 4
        }
      ]
    },
    {
      "name": "Line011_Material #55_0",
      "primitives": [
        {
          "attributes": {
            "NORMAL": 5,
            "POSITION": 4,
            "TANGENT": 6
          },
          "indices": 7,
          "material": 1,
          "mode": 4
        }
      ]
    }
  ],
  "nodes": [
    {
      "children": [
        1
      ],
      "name": "RootNode (gltf orientation matrix)",
      "rotation": [
        -0.70710678118654746,
        -0,
        -0,
        0.70710678118654757
      ]
    },
    {
      "children": [
        2
      ],
      "name": "RootNode (model correction matrix)"
    },
    {
      "children": [
        3
      ],
      "matrix": [
        1,
        0,
        0,
        0,
        0,
        0,
        1,
        0,
        0,
        -1,
        0,
        0,
        0,
        0,
        0,
        1
      ],
      "name": "557e39c51f59440382511b8f4d58f896.fbx"
    },
    {
      "children": [
        4
      ],
      "name": "RootNode"
    },
    {
      "children": [
        5,
        6
      ],
      "matrix": [
        -0.4542847420877279,
        -1.6635554496400364e-09,
        2.7001174938188099,
        0,
        4.6213986539807514,
        0.33923789928340903,
        0.77753316327109434,
        0,
        -0.40583266164902104,
        5.685108758023615,
        -0.068279834856284249,
        0,
        -1413.5982666015625,
        176.29562377929688,
        6.8178653717041016,
        1
      ],
      "name": "Line011"
    },
    {
      "mesh": 0,
      "name": "Line011_Material #55_0"
    },
    {
      "mesh": 1,
      "name": "Line011_Material #55_0"
    }
  ],
  "scene": 0,
  "scenes": [
    {
      "name": "OSG_Scene",
      "nodes": [
        0
      ]
    }
  ]
}

